# xmcd
#
# Track frame offsets:
#	150
#	17582
#	32315
#	62962
#	81249
#	107107
#
# Disc length: 1674 seconds
# Revision: 0
# Processed by: cddbd v1.5.2PL0 Copyright (c) Steve Scherf et al.
# Submitted via: dBpowerAMP V12.0
#
DISCID=41068806
DTITLE=Cecil B. Fardoulli and The Big Boo - A Foot Tappin' Boogie
DYEAR=2016
DGENRE=Blues
TTITLE0=A Foot a Tappin' Boogie
TTITLE1=Take The Tin Lizzy
TTITLE2=The Big Red Ball
TTITLE3=Move With Me
TTITLE4=Blue Morning
TTITLE5=Hey Mona Lisa
EXTD=
EXTT0=
EXTT1=
EXTT2=
EXTT3=
EXTT4=
EXTT5=
PLAYORDER=
